<?xml version="1.0" encoding="utf-8"?>
<svg fill="#000000" viewBox="0 0 24 24" xmlns="http://www.w3.org/2000/svg">
  <path d="M18.35,9.44,17.05,11a1,1,0,0,1-1.41.11L14,9.66V17H10V9.66L8.36,11.07A1,1,0,0,1,7,11L5.65,9.44A1,1,0,0,1,5.76,8l5.59-4.79a1,1,0,0,1,1.3,0L18.24,8A1,1,0,0,1,18.35,9.44Z" style="fill: rgb(44, 169, 188); stroke-width: 2;"></path>
  <path d="M20,17v3a1,1,0,0,1-1,1H5a1,1,0,0,1-1-1V17" style="fill: none; stroke: rgb(0, 0, 0); stroke-linecap: round; stroke-linejoin: round; stroke-width: 2;"></path>
  <path d="M18.35,9.44,17.05,11a1,1,0,0,1-1.41.11L14,9.66V17H10V9.66L8.36,11.07A1,1,0,0,1,7,11L5.65,9.44A1,1,0,0,1,5.76,8l5.59-4.79a1,1,0,0,1,1.3,0L18.24,8A1,1,0,0,1,18.35,9.44Z" style="fill: none; stroke: rgb(0, 0, 0); stroke-linecap: round; stroke-linejoin: round; stroke-width: 2;"></path>
</svg>
