<?xml version="1.0" encoding="utf-8"?>
<svg fill="#000000" viewBox="0 0 24 24" xmlns="http://www.w3.org/2000/svg">
  <path id="secondary" d="M17,6H7V4A1,1,0,0,1,8,3h8a1,1,0,0,1,1,1Zm1,8H6v7H18Z" style="fill: rgb(44, 169, 188); stroke-width: 2;"></path>
  <path id="primary" d="M18,17h2a1,1,0,0,0,1-1V7a1,1,0,0,0-1-1H4A1,1,0,0,0,3,7v9a1,1,0,0,0,1,1H6" style="fill: none; stroke: rgb(0, 0, 0); stroke-linecap: round; stroke-linejoin: round; stroke-width: 2;"></path>
  <path id="primary-2" data-name="primary" d="M17,6H7V4A1,1,0,0,1,8,3h8a1,1,0,0,1,1,1Zm1,8H6v7H18Zm-1-4H15" style="fill: none; stroke: rgb(0, 0, 0); stroke-linecap: round; stroke-linejoin: round; stroke-width: 2;"></path>
</svg>
